<?xml version="1.0" encoding="UTF-8"?>
<svg width="94px" height="160px" viewBox="0 0 94 160" version="1.1" xmlns="http://www.w3.org/2000/svg" xmlns:xlink="http://www.w3.org/1999/xlink">
    <!-- Generator: Sketch 60.1 (88133) - https://sketch.com -->
    <title>Group</title>
    <desc>Created with Sketch.</desc>
    <g id="Page-1" stroke="none" stroke-width="1" fill="none" fill-rule="evenodd">
        <g id="Apple-TV" transform="translate(-35.000000, -609.000000)" fill="#EF5350">
            <g id="Group" transform="translate(35.000000, 609.000000)">
                <path d="M2.86209091,154.216091 C4.44427273,154.216091 5.72418182,155.497727 5.72418182,157.079909 C5.72418182,158.660364 4.44427273,159.942 2.86209091,159.942 C1.28163636,159.942 0,158.660364 0,157.079909 C0,155.497727 1.28163636,154.216091 2.86209091,154.216091" id="Fill-1687"></path>
                <path d="M2.86209091,132.184727 C4.44427273,132.184727 5.72418182,133.468091 5.72418182,135.048545 C5.72418182,136.629 4.44427273,137.910636 2.86209091,137.910636 C1.28163636,137.910636 0,136.629 0,135.048545 C0,133.468091 1.28163636,132.184727 2.86209091,132.184727" id="Fill-1688"></path>
                <path d="M2.86209091,110.155091 C4.44427273,110.155091 5.72418182,111.436727 5.72418182,113.017182 C5.72418182,114.599364 4.44427273,115.881 2.86209091,115.881 C1.28163636,115.881 0,114.599364 0,113.017182 C0,111.436727 1.28163636,110.155091 2.86209091,110.155091" id="Fill-1689"></path>
                <path d="M2.86209091,88.1237273 C4.44427273,88.1237273 5.72418182,89.4053636 5.72418182,90.9875455 C5.72418182,92.568 4.44427273,93.8496364 2.86209091,93.8496364 C1.28163636,93.8496364 0,92.568 0,90.9875455 C0,89.4053636 1.28163636,88.1237273 2.86209091,88.1237273" id="Fill-1690"></path>
                <path d="M2.86209091,66.0940909 C4.44427273,66.0940909 5.72418182,67.3757273 5.72418182,68.9561818 C5.72418182,70.5366364 4.44427273,71.8182727 2.86209091,71.8182727 C1.28163636,71.8182727 0,70.5366364 0,68.9561818 C0,67.3757273 1.28163636,66.0940909 2.86209091,66.0940909" id="Fill-1691"></path>
                <path d="M2.86209091,44.0627273 C4.44427273,44.0627273 5.72418182,45.3443636 5.72418182,46.9248182 C5.72418182,48.5052727 4.44427273,49.7869091 2.86209091,49.7869091 C1.28163636,49.7869091 0,48.5052727 0,46.9248182 C0,45.3443636 1.28163636,44.0627273 2.86209091,44.0627273" id="Fill-1692"></path>
                <path d="M2.86209091,22.0313636 C4.44427273,22.0313636 5.72418182,23.313 5.72418182,24.8934545 C5.72418182,26.4756364 4.44427273,27.7572727 2.86209091,27.7572727 C1.28163636,27.7572727 0,26.4756364 0,24.8934545 C0,23.313 1.28163636,22.0313636 2.86209091,22.0313636" id="Fill-1693"></path>
                <path d="M2.86209091,1.42108547e-14 C4.44427273,1.42108547e-14 5.72418182,1.28163636 5.72418182,2.86381818 C5.72418182,4.44427273 4.44427273,5.72763636 2.86209091,5.72763636 C1.28163636,5.72763636 0,4.44427273 0,2.86381818 C0,1.28163636 1.28163636,1.42108547e-14 2.86209091,1.42108547e-14" id="Fill-1694"></path>
                <path d="M24.8934545,154.216091 C26.4739091,154.216091 27.7555455,155.497727 27.7555455,157.079909 C27.7555455,158.660364 26.4739091,159.942 24.8934545,159.942 C23.313,159.942 22.0296364,158.660364 22.0296364,157.079909 C22.0296364,155.497727 23.313,154.216091 24.8934545,154.216091" id="Fill-1695"></path>
                <path d="M24.8934545,132.184727 C26.4739091,132.184727 27.7555455,133.468091 27.7555455,135.048545 C27.7555455,136.629 26.4739091,137.910636 24.8934545,137.910636 C23.313,137.910636 22.0296364,136.629 22.0296364,135.048545 C22.0296364,133.468091 23.313,132.184727 24.8934545,132.184727" id="Fill-1696"></path>
                <path d="M24.8934545,110.155091 C26.4739091,110.155091 27.7555455,111.436727 27.7555455,113.017182 C27.7555455,114.599364 26.4739091,115.881 24.8934545,115.881 C23.313,115.881 22.0296364,114.599364 22.0296364,113.017182 C22.0296364,111.436727 23.313,110.155091 24.8934545,110.155091" id="Fill-1697"></path>
                <path d="M24.8934545,88.1237273 C26.4739091,88.1237273 27.7555455,89.4053636 27.7555455,90.9875455 C27.7555455,92.568 26.4739091,93.8496364 24.8934545,93.8496364 C23.313,93.8496364 22.0296364,92.568 22.0296364,90.9875455 C22.0296364,89.4053636 23.313,88.1237273 24.8934545,88.1237273" id="Fill-1698"></path>
                <path d="M24.8934545,66.0940909 C26.4739091,66.0940909 27.7555455,67.3757273 27.7555455,68.9561818 C27.7555455,70.5366364 26.4739091,71.8182727 24.8934545,71.8182727 C23.313,71.8182727 22.0296364,70.5366364 22.0296364,68.9561818 C22.0296364,67.3757273 23.313,66.0940909 24.8934545,66.0940909" id="Fill-1699"></path>
                <path d="M24.8934545,44.0627273 C26.4739091,44.0627273 27.7555455,45.3443636 27.7555455,46.9248182 C27.7555455,48.5052727 26.4739091,49.7869091 24.8934545,49.7869091 C23.313,49.7869091 22.0296364,48.5052727 22.0296364,46.9248182 C22.0296364,45.3443636 23.313,44.0627273 24.8934545,44.0627273" id="Fill-1700"></path>
                <path d="M24.8934545,22.0313636 C26.4739091,22.0313636 27.7555455,23.313 27.7555455,24.8934545 C27.7555455,26.4756364 26.4739091,27.7572727 24.8934545,27.7572727 C23.313,27.7572727 22.0296364,26.4756364 22.0296364,24.8934545 C22.0296364,23.313 23.313,22.0313636 24.8934545,22.0313636" id="Fill-1701"></path>
                <path d="M24.8934545,1.42108547e-14 C26.4739091,1.42108547e-14 27.7555455,1.28163636 27.7555455,2.86381818 C27.7555455,4.44427273 26.4739091,5.72763636 24.8934545,5.72763636 C23.313,5.72763636 22.0296364,4.44427273 22.0296364,2.86381818 C22.0296364,1.28163636 23.313,1.42108547e-14 24.8934545,1.42108547e-14" id="Fill-1702"></path>
                <path d="M46.9248182,154.216091 C48.5052727,154.216091 49.7869091,155.497727 49.7869091,157.079909 C49.7869091,158.660364 48.5052727,159.942 46.9248182,159.942 C45.3426364,159.942 44.061,158.660364 44.061,157.079909 C44.061,155.497727 45.3426364,154.216091 46.9248182,154.216091" id="Fill-1703"></path>
                <path d="M46.9248182,132.184727 C48.5052727,132.184727 49.7869091,133.468091 49.7869091,135.048545 C49.7869091,136.629 48.5052727,137.910636 46.9248182,137.910636 C45.3426364,137.910636 44.061,136.629 44.061,135.048545 C44.061,133.468091 45.3426364,132.184727 46.9248182,132.184727" id="Fill-1704"></path>
                <path d="M46.9248182,110.155091 C48.5052727,110.155091 49.7869091,111.436727 49.7869091,113.017182 C49.7869091,114.599364 48.5052727,115.881 46.9248182,115.881 C45.3426364,115.881 44.061,114.599364 44.061,113.017182 C44.061,111.436727 45.3426364,110.155091 46.9248182,110.155091" id="Fill-1705"></path>
                <path d="M46.9248182,88.1237273 C48.5052727,88.1237273 49.7869091,89.4053636 49.7869091,90.9875455 C49.7869091,92.568 48.5052727,93.8496364 46.9248182,93.8496364 C45.3426364,93.8496364 44.061,92.568 44.061,90.9875455 C44.061,89.4053636 45.3426364,88.1237273 46.9248182,88.1237273" id="Fill-1706"></path>
                <path d="M46.9248182,66.0940909 C48.5052727,66.0940909 49.7869091,67.3757273 49.7869091,68.9561818 C49.7869091,70.5366364 48.5052727,71.8182727 46.9248182,71.8182727 C45.3426364,71.8182727 44.061,70.5366364 44.061,68.9561818 C44.061,67.3757273 45.3426364,66.0940909 46.9248182,66.0940909" id="Fill-1707"></path>
                <path d="M46.9248182,44.0627273 C48.5052727,44.0627273 49.7869091,45.3443636 49.7869091,46.9248182 C49.7869091,48.5052727 48.5052727,49.7869091 46.9248182,49.7869091 C45.3426364,49.7869091 44.061,48.5052727 44.061,46.9248182 C44.061,45.3443636 45.3426364,44.0627273 46.9248182,44.0627273" id="Fill-1708"></path>
                <path d="M46.9248182,22.0313636 C48.5052727,22.0313636 49.7869091,23.313 49.7869091,24.8934545 C49.7869091,26.4756364 48.5052727,27.7572727 46.9248182,27.7572727 C45.3426364,27.7572727 44.061,26.4756364 44.061,24.8934545 C44.061,23.313 45.3426364,22.0313636 46.9248182,22.0313636" id="Fill-1709"></path>
                <path d="M46.9248182,1.42108547e-14 C48.5052727,1.42108547e-14 49.7869091,1.28163636 49.7869091,2.86381818 C49.7869091,4.44427273 48.5052727,5.72763636 46.9248182,5.72763636 C45.3426364,5.72763636 44.061,4.44427273 44.061,2.86381818 C44.061,1.28163636 45.3426364,1.42108547e-14 46.9248182,1.42108547e-14" id="Fill-1710"></path>
                <path d="M68.9527273,154.216091 C70.5366364,154.216091 71.8182727,155.497727 71.8182727,157.079909 C71.8182727,158.660364 70.5366364,159.942 68.9527273,159.942 C67.3722727,159.942 66.0906364,158.660364 66.0906364,157.079909 C66.0906364,155.497727 67.3722727,154.216091 68.9527273,154.216091" id="Fill-1711"></path>
                <path d="M68.9527273,132.184727 C70.5366364,132.184727 71.8182727,133.468091 71.8182727,135.048545 C71.8182727,136.629 70.5366364,137.910636 68.9527273,137.910636 C67.3722727,137.910636 66.0906364,136.629 66.0906364,135.048545 C66.0906364,133.468091 67.3722727,132.184727 68.9527273,132.184727" id="Fill-1712"></path>
                <path d="M68.9527273,110.155091 C70.5366364,110.155091 71.8182727,111.436727 71.8182727,113.017182 C71.8182727,114.599364 70.5366364,115.881 68.9527273,115.881 C67.3722727,115.881 66.0906364,114.599364 66.0906364,113.017182 C66.0906364,111.436727 67.3722727,110.155091 68.9527273,110.155091" id="Fill-1713"></path>
                <path d="M68.9527273,88.1237273 C70.5366364,88.1237273 71.8182727,89.4053636 71.8182727,90.9875455 C71.8182727,92.568 70.5366364,93.8496364 68.9527273,93.8496364 C67.3722727,93.8496364 66.0906364,92.568 66.0906364,90.9875455 C66.0906364,89.4053636 67.3722727,88.1237273 68.9527273,88.1237273" id="Fill-1714"></path>
                <path d="M68.9527273,66.0940909 C70.5366364,66.0940909 71.8182727,67.3757273 71.8182727,68.9561818 C71.8182727,70.5366364 70.5366364,71.8182727 68.9527273,71.8182727 C67.3722727,71.8182727 66.0906364,70.5366364 66.0906364,68.9561818 C66.0906364,67.3757273 67.3722727,66.0940909 68.9527273,66.0940909" id="Fill-1715"></path>
                <path d="M68.9527273,44.0627273 C70.5366364,44.0627273 71.8182727,45.3443636 71.8182727,46.9248182 C71.8182727,48.5052727 70.5366364,49.7869091 68.9527273,49.7869091 C67.3722727,49.7869091 66.0906364,48.5052727 66.0906364,46.9248182 C66.0906364,45.3443636 67.3722727,44.0627273 68.9527273,44.0627273" id="Fill-1716"></path>
                <path d="M68.9527273,22.0313636 C70.5366364,22.0313636 71.8182727,23.313 71.8182727,24.8934545 C71.8182727,26.4756364 70.5366364,27.7572727 68.9527273,27.7572727 C67.3722727,27.7572727 66.0906364,26.4756364 66.0906364,24.8934545 C66.0906364,23.313 67.3722727,22.0313636 68.9527273,22.0313636" id="Fill-1717"></path>
                <path d="M68.9527273,1.42108547e-14 C70.5366364,1.42108547e-14 71.8182727,1.28163636 71.8182727,2.86381818 C71.8182727,4.44427273 70.5366364,5.72763636 68.9527273,5.72763636 C67.3722727,5.72763636 66.0906364,4.44427273 66.0906364,2.86381818 C66.0906364,1.28163636 67.3722727,1.42108547e-14 68.9527273,1.42108547e-14" id="Fill-1718"></path>
                <path d="M90.9840909,154.216091 C92.5662727,154.216091 93.8479091,155.497727 93.8479091,157.079909 C93.8479091,158.660364 92.5662727,159.942 90.9840909,159.942 C89.4036364,159.942 88.122,158.660364 88.122,157.079909 C88.122,155.497727 89.4036364,154.216091 90.9840909,154.216091" id="Fill-1719"></path>
                <path d="M90.9840909,132.184727 C92.5662727,132.184727 93.8479091,133.468091 93.8479091,135.048545 C93.8479091,136.629 92.5662727,137.910636 90.9840909,137.910636 C89.4036364,137.910636 88.122,136.629 88.122,135.048545 C88.122,133.468091 89.4036364,132.184727 90.9840909,132.184727" id="Fill-1720"></path>
                <path d="M90.9840909,110.155091 C92.5662727,110.155091 93.8479091,111.436727 93.8479091,113.017182 C93.8479091,114.599364 92.5662727,115.881 90.9840909,115.881 C89.4036364,115.881 88.122,114.599364 88.122,113.017182 C88.122,111.436727 89.4036364,110.155091 90.9840909,110.155091" id="Fill-1721"></path>
                <path d="M90.9840909,88.1237273 C92.5662727,88.1237273 93.8479091,89.4053636 93.8479091,90.9875455 C93.8479091,92.568 92.5662727,93.8496364 90.9840909,93.8496364 C89.4036364,93.8496364 88.122,92.568 88.122,90.9875455 C88.122,89.4053636 89.4036364,88.1237273 90.9840909,88.1237273" id="Fill-1722"></path>
                <path d="M90.9840909,66.0940909 C92.5662727,66.0940909 93.8479091,67.3757273 93.8479091,68.9561818 C93.8479091,70.5366364 92.5662727,71.8182727 90.9840909,71.8182727 C89.4036364,71.8182727 88.122,70.5366364 88.122,68.9561818 C88.122,67.3757273 89.4036364,66.0940909 90.9840909,66.0940909" id="Fill-1723"></path>
                <path d="M90.9840909,44.0627273 C92.5662727,44.0627273 93.8479091,45.3443636 93.8479091,46.9248182 C93.8479091,48.5052727 92.5662727,49.7869091 90.9840909,49.7869091 C89.4036364,49.7869091 88.122,48.5052727 88.122,46.9248182 C88.122,45.3443636 89.4036364,44.0627273 90.9840909,44.0627273" id="Fill-1724"></path>
                <path d="M90.9840909,22.0313636 C92.5662727,22.0313636 93.8479091,23.313 93.8479091,24.8934545 C93.8479091,26.4756364 92.5662727,27.7572727 90.9840909,27.7572727 C89.4036364,27.7572727 88.122,26.4756364 88.122,24.8934545 C88.122,23.313 89.4036364,22.0313636 90.9840909,22.0313636" id="Fill-1725"></path>
                <path d="M90.9840909,1.42108547e-14 C92.5662727,1.42108547e-14 93.8479091,1.28163636 93.8479091,2.86381818 C93.8479091,4.44427273 92.5662727,5.72763636 90.9840909,5.72763636 C89.4036364,5.72763636 88.122,4.44427273 88.122,2.86381818 C88.122,1.28163636 89.4036364,1.42108547e-14 90.9840909,1.42108547e-14" id="Fill-1726"></path>
            </g>
        </g>
    </g>
</svg>