<?xml version="1.0" encoding="UTF-8"?>
<svg width="25px" height="25px" viewBox="0 0 25 25" version="1.1" xmlns="http://www.w3.org/2000/svg" xmlns:xlink="http://www.w3.org/1999/xlink">
    <!-- Generator: Sketch 60.1 (88133) - https://sketch.com -->
    <title>instagram (2)</title>
    <desc>Created with Sketch.</desc>
    <g id="Page-1" stroke="none" stroke-width="1" fill="none" fill-rule="evenodd">
        <g id="Apple-TV" transform="translate(-1835.000000, -68.000000)" fill="#FFFFFF" fill-rule="nonzero">
            <g id="Group-4" transform="translate(1745.000000, 68.000000)">
                <g id="instagram-(2)" transform="translate(90.000000, 0.000000)">
                    <path d="M14.8925781,12.5 C14.8925781,13.8214111 13.8214111,14.8925781 12.5,14.8925781 C11.1785889,14.8925781 10.1074219,13.8214111 10.1074219,12.5 C10.1074219,11.1785889 11.1785889,10.1074219 12.5,10.1074219 C13.8214111,10.1074219 14.8925781,11.1785889 14.8925781,12.5 Z" id="Path"></path>
                    <path d="M18.0953979,8.26683047 C17.9803848,7.95516968 17.7968979,7.6730728 17.5584793,7.4415207 C17.3269272,7.2031021 17.045021,7.01961519 16.7331695,6.90460205 C16.4802551,6.80637358 16.1003113,6.68945312 15.4005051,6.65760039 C14.6434784,6.62307739 14.4165039,6.61563872 12.5,6.61563872 C10.5833054,6.61563872 10.3563309,6.62288667 9.59949492,6.65740967 C8.89968872,6.68945312 8.51955415,6.80637358 8.26683047,6.90460205 C7.95497896,7.01961519 7.67288208,7.2031021 7.4415207,7.4415207 C7.2031021,7.6730728 7.01961519,7.95497896 6.90441133,8.26683047 C6.80618286,8.51974487 6.6892624,8.89987944 6.65740967,9.59968564 C6.62288667,10.3565216 6.615448,10.5834961 6.615448,12.5001907 C6.615448,14.4166946 6.62288667,14.6436691 6.65740967,15.4006958 C6.6892624,16.100502 6.80618286,16.4804458 6.90441133,16.7333603 C7.01961519,17.0452118 7.20291138,17.3271179 7.44132998,17.55867 C7.67288208,17.7970886 7.95478818,17.9805756 8.2666397,18.0955887 C8.51955415,18.1940079 8.89968872,18.3109283 9.59949492,18.3427811 C10.3563309,18.3773041 10.5831146,18.384552 12.4998093,18.384552 C14.4166946,18.384552 14.6436691,18.3773041 15.4003144,18.3427811 C16.1001206,18.3109283 16.4802551,18.1940079 16.7331695,18.0955887 C17.3591614,17.8541184 17.8539276,17.3593521 18.0953979,16.7333603 C18.1936264,16.4804458 18.3105469,16.100502 18.3425903,15.4006958 C18.3771133,14.6436691 18.3843613,14.4166946 18.3843613,12.5001907 C18.3843613,10.5834961 18.3771133,10.3565216 18.3425903,9.59968564 C18.3107376,8.89987944 18.1938171,8.51974487 18.0953979,8.26683047 L18.0953979,8.26683047 Z M12.5,16.1857605 C10.4642868,16.1857605 8.81404878,14.5357132 8.81404878,12.5 C8.81404878,10.4642868 10.4642868,8.8142395 12.5,8.8142395 C14.5355225,8.8142395 16.1857605,10.4642868 16.1857605,12.5 C16.1857605,14.5357132 14.5355225,16.1857605 12.5,16.1857605 Z M16.3314819,9.52987671 C15.8557892,9.52987671 15.4701233,9.14421084 15.4701233,8.66851807 C15.4701233,8.19282529 15.8557892,7.80715942 16.3314819,7.80715942 C16.8071747,7.80715942 17.1928406,8.19282529 17.1928406,8.66851807 C17.1926499,9.14421084 16.8071747,9.52987671 16.3314819,9.52987671 Z" id="Shape"></path>
                    <path d="M12.5,0 C5.59749604,0 0,5.59749604 0,12.5 C0,19.402504 5.59749604,25 12.5,25 C19.402504,25 25,19.402504 25,12.5 C25,5.59749604 19.402504,0 12.5,0 Z M19.6344375,15.4592514 C19.5997238,16.2233353 19.4782257,16.7449951 19.3008423,17.2016144 C18.9279556,18.1657791 18.1657791,18.9279556 17.2016144,19.3008423 C16.7451858,19.4782257 16.2233353,19.5995331 15.4594421,19.6344375 C14.6940231,19.669342 14.449501,19.6777344 12.5001907,19.6777344 C10.5506897,19.6777344 10.3063583,19.669342 9.54074858,19.6344375 C8.77685547,19.5995331 8.25500488,19.4782257 7.79857637,19.3008423 C7.31945039,19.1205979 6.88571929,18.8381195 6.52713774,18.4728623 C6.16207124,18.1144714 5.87959287,17.6805496 5.69934844,17.2016144 C5.52196504,16.7451858 5.40046689,16.2233353 5.36575317,15.4594421 C5.33046724,14.6938324 5.32226563,14.4493103 5.32226563,12.5 C5.32226563,10.5506897 5.33046724,10.3061676 5.36556245,9.54074858 C5.40027617,8.77666475 5.52158354,8.25500488 5.69896699,7.79838564 C5.87921143,7.31945039 6.16188047,6.88552856 6.52713774,6.52713774 C6.88552856,6.16188047 7.31945039,5.87940215 7.79838564,5.69915771 C8.25500488,5.52177432 8.77666475,5.40046689 9.54074858,5.36556245 C10.3061676,5.33065796 10.5506897,5.32226563 12.5,5.32226563 C14.4493103,5.32226563 14.6938324,5.33065796 15.4592514,5.36575317 C16.2233353,5.40046689 16.7449951,5.52177432 17.2016144,5.69896699 C17.6805496,5.87921143 18.1144714,6.16188047 18.473053,6.52713774 C18.8381195,6.88571929 19.1207886,7.31945039 19.3008423,7.79838564 C19.4784165,8.25500488 19.5997238,8.77666475 19.6346283,9.54074858 C19.6695328,10.3061676 19.6777344,10.5506897 19.6777344,12.5 C19.6777344,14.4493103 19.6695328,14.6938324 19.6344375,15.4592514 L19.6344375,15.4592514 Z" id="Shape"></path>
                </g>
            </g>
        </g>
    </g>
</svg>