<?xml version="1.0" encoding="UTF-8"?>
<svg width="37px" height="40px" viewBox="0 0 37 40" version="1.1" xmlns="http://www.w3.org/2000/svg" xmlns:xlink="http://www.w3.org/1999/xlink">
    <!-- Generator: Sketch 60.1 (88133) - https://sketch.com -->
    <title>Group</title>
    <desc>Created with Sketch.</desc>
    <g id="Page-1" stroke="none" stroke-width="1" fill="none" fill-rule="evenodd">
        <g id="Apple-TV" transform="translate(-60.000000, -60.000000)">
            <g id="Group" transform="translate(60.000000, 60.000000)">
                <path d="M6.363,5.5915154 L6.363,0.0105154028 L21.7991114,0.0105154028 C24.5401973,0.0105154028 26.8987288,0.928646142 28.8747059,2.7893486 L29.1302725,3.03739633 C31.1574496,5.06457346 32.1571534,7.48052429 32.1571534,10.3407879 L32.1571534,10.3407879 L32.1293839,11.0072571 C31.9627666,13.2010515 31.2129887,15.1171505 29.9078199,16.7555539 C30.8519846,17.2831754 31.7128406,17.9496445 32.4626185,18.7271919 C34.8785693,21.1431428 36.1004295,24.086715 36.1004295,27.5023697 C36.1004295,30.9457938 34.8785693,33.8893661 32.4626185,36.3053169 C30.0466677,38.7212678 27.1030954,39.943128 23.6596712,39.943128 L23.6596712,39.943128 L8.08095379,39.943128 C8.08095379,38.3880332 8.63634479,37.0550948 9.71935723,35.9720823 C10.8023697,34.8890699 12.1353081,34.3336789 13.6626333,34.3336789 L13.6626333,34.3336789 L23.6596712,34.3336789 C25.5480006,34.3336789 27.1586345,33.6672097 28.4915729,32.3342713 C29.8245113,31.0013329 30.4909805,29.3906991 30.4909805,27.5023697 C30.4909805,25.6140403 29.8245113,24.0034064 28.4915729,22.670468 C27.1586345,21.3375296 25.5480006,20.6710604 23.6596712,20.6710604 L23.6596712,20.6710604 L9.33058353,20.6710604 C9.33058353,19.1437352 9.88597453,17.8107968 10.968987,16.7277844 C12.0519994,15.6170024 13.3849378,15.0616114 14.912263,15.0616114 L14.912263,15.0616114 L21.7991114,15.0616114 C23.1042802,15.0616114 24.2428318,14.6172986 25.1592269,13.7009034 C26.075622,12.7845083 26.5477044,11.6459568 26.5477044,10.3407879 C26.5477044,9.03561908 26.075622,7.89706754 25.1592269,6.98067239 C24.2428318,6.06427725 23.1042802,5.59219491 21.7991114,5.59219491 L21.7991114,5.59219491 L6.363,5.5915154 Z M5.609,6.3505154 L5.60946386,34.3336789 C5.55392476,35.9165432 4.99853377,37.2494816 3.91552133,38.3324941 C2.83250889,39.4155065 1.52734005,39.943128 1.48104266e-05,39.943128 L1.48104266e-05,39.943128 L4.26325641e-14,6.3505154 L5.609,6.3505154 Z M5.605,0.0105154028 L5.605,5.5915154 L4.26325641e-14,5.5915154 L1.48104266e-05,0.0105154028 L1.48104266e-05,0.0105154028 L5.605,0.0105154028 Z" id="IB" fill="#FFFFFF" fill-rule="nonzero"></path>
                <rect id="Rectangle" fill="#EF5350" x="0.00379146919" y="0" width="5.59241706" height="5.59241706"></rect>
            </g>
        </g>
    </g>
</svg>