<?xml version="1.0" encoding="UTF-8"?>
<svg width="25px" height="25px" viewBox="0 0 25 25" version="1.1" xmlns="http://www.w3.org/2000/svg" xmlns:xlink="http://www.w3.org/1999/xlink">
    <!-- Generator: Sketch 60.1 (88133) - https://sketch.com -->
    <title>skype</title>
    <desc>Created with Sketch.</desc>
    <g id="Page-1" stroke="none" stroke-width="1" fill="none" fill-rule="evenodd">
        <g id="Apple-TV" transform="translate(-1790.000000, -68.000000)" fill="#FFFFFF" fill-rule="nonzero">
            <g id="Group-4" transform="translate(1745.000000, 68.000000)">
                <g id="skype" transform="translate(45.000000, 0.000000)">
                    <path d="M13.8885498,11.6094589 L12.1696472,11.2279892 C11.5158081,11.0790253 10.7631684,10.8821869 10.7631684,10.2657318 C10.7631684,9.6479416 11.2911225,9.21630859 12.2442246,9.21630859 C14.1651153,9.21630859 13.9896393,10.5363846 14.9433136,10.5363846 C15.445137,10.5363846 15.8843994,10.2413178 15.8843994,9.73396299 C15.8843994,8.55007173 13.9896393,7.66162871 12.3823166,7.66162871 C10.6374741,7.66162871 8.77933501,8.40263369 8.77933501,10.3761673 C8.77933501,11.3265991 9.11884307,12.3376846 10.9891892,12.8067017 L13.3115769,13.3865356 C14.0144348,13.5597229 14.1902924,13.9551163 14.1902924,14.3117905 C14.1902924,14.9049759 13.6011124,15.4844284 12.5337601,15.4844284 C10.4488373,15.4844284 10.7381821,13.8799667 9.62085723,13.8799667 C9.11884307,13.8799667 8.7545395,14.225769 8.7545395,14.7192001 C8.7545395,15.6812668 9.9225998,16.9651031 12.5337601,16.9651031 C15.0180816,16.9651031 16.2490845,15.7676697 16.2490845,14.1639709 C16.2490845,13.1284714 15.7716751,12.0290756 13.8885498,11.6094589 L13.8885498,11.6094589 Z" id="Path"></path>
                    <path d="M12.5,0 C5.59749604,0 0,5.59749604 0,12.5 C0,19.402504 5.59749604,25 12.5,25 C19.402504,25 25,19.402504 25,12.5 C25,5.59749604 19.402504,0 12.5,0 Z M19.0080643,18.989563 C18.1861877,19.811821 17.0940399,20.2636719 15.9320831,20.2636719 C15.1794434,20.2636719 14.4424438,20.0679779 13.7914658,19.6996689 C13.368988,19.7746277 12.9362106,19.8141098 12.5043869,19.8141098 C11.5121841,19.8141098 10.5493545,19.6195603 9.64355469,19.2356109 C8.7677002,18.8663482 7.98206328,18.3359146 7.30667114,17.6609039 C6.63204194,16.986084 6.10218047,16.2004471 5.73234561,15.3249741 C5.34858701,14.418602 5.15441895,13.4563446 5.15441895,12.4639511 C5.15441895,12.0389938 5.19256592,11.6134644 5.26504517,11.1970901 C4.90779878,10.5545044 4.71763613,9.8274231 4.71763613,9.08756255 C4.71763613,7.92541504 5.17044067,6.83269502 5.99193574,6.01100923 C6.81381226,5.18894194 7.90653228,4.73632812 9.06867979,4.73632812 C9.78050234,4.73632812 10.4839325,4.91390229 11.1091614,5.24635312 C11.1103058,5.2461624 11.1116409,5.2461624 11.1125946,5.24578096 C11.5684509,5.15842437 12.036705,5.11436465 12.5043869,5.11436465 C13.4963989,5.11436465 14.4590378,5.30872344 15.3648376,5.69190977 C16.2397385,6.06212617 17.0263291,6.5919876 17.7007675,7.26680757 C18.3761597,7.94181826 18.9058304,8.72783662 19.2760468,9.6031189 C19.6598053,10.5093002 19.8539734,11.4717483 19.8539734,12.4639511 C19.8539734,12.9112244 19.811821,13.3588791 19.7315216,13.7962341 C20.0912476,14.4412994 20.2825546,15.1708603 20.2825546,15.9132004 C20.2823639,17.0753479 19.8301315,18.1682587 19.0080643,18.989563 Z" id="Shape"></path>
                </g>
            </g>
        </g>
    </g>
</svg>